<svg width="40" height="40" viewBox="0 0 40 40" fill="none" xmlns="http://www.w3.org/2000/svg">
<rect width="40" height="40" rx="20" fill="#FFE3E6"/>
<g clip-path="url(#clip0_240_9542)">
<path d="M24.166 20.9867V18.3334C24.166 18.1124 24.0782 17.9004 23.9219 17.7441C23.7657 17.5878 23.5537 17.5001 23.3327 17.5001V12.0117C23.3327 11.669 23.2451 11.3319 23.0782 11.0326C22.9113 10.7332 22.6706 10.4815 22.379 10.3014C22.0874 10.1213 21.7546 10.0187 21.4122 10.0035C21.0698 9.9882 20.7291 10.0608 20.4227 10.2142L18.2377 11.3059C17.7645 11.5412 17.3666 11.9041 17.0889 12.3537C16.8111 12.8033 16.6647 13.3216 16.666 13.8501V17.5001C16.445 17.5001 16.233 17.5878 16.0768 17.7441C15.9205 17.9004 15.8327 18.1124 15.8327 18.3334V20.9867C15.3469 21.1585 14.9261 21.4761 14.6278 21.8961C14.3294 22.3162 14.1682 22.8182 14.166 23.3334V25.8334C14.1673 26.938 14.6068 27.9971 15.3879 28.7782C16.169 29.5593 17.228 29.9987 18.3327 30H21.666C22.7707 29.9987 23.8297 29.5593 24.6108 28.7782C25.3919 27.9971 25.8314 26.938 25.8327 25.8334V23.3334C25.8305 22.8182 25.6693 22.3162 25.3709 21.8961C25.0726 21.4761 24.6518 21.1585 24.166 20.9867V20.9867ZM17.4993 20.8334V19.1667H22.4993V20.8334H17.4993ZM18.3327 13.8501C18.3321 13.6312 18.3927 13.4166 18.5077 13.2305C18.6227 13.0443 18.7876 12.8941 18.9835 12.7967L21.166 11.7051C21.2184 11.6779 21.2769 11.6648 21.3359 11.6669C21.3949 11.669 21.4523 11.6864 21.5026 11.7172C21.5529 11.7481 21.5944 11.7914 21.623 11.843C21.6516 11.8946 21.6665 11.9527 21.666 12.0117V17.5001H18.3327V13.8501ZM24.166 25.8334C24.166 26.4964 23.9026 27.1323 23.4338 27.6012C22.9649 28.07 22.3291 28.3334 21.666 28.3334H18.3327C17.6696 28.3334 17.0338 28.07 16.5649 27.6012C16.0961 27.1323 15.8327 26.4964 15.8327 25.8334V23.3334C15.8327 23.1124 15.9205 22.9004 16.0768 22.7441C16.233 22.5878 16.445 22.5 16.666 22.5H23.3327C23.5537 22.5 23.7657 22.5878 23.9219 22.7441C24.0782 22.9004 24.166 23.1124 24.166 23.3334V25.8334Z" fill="#8D2661"/>
</g>
<defs>
<clipPath id="clip0_240_9542">
<rect width="20" height="20" fill="white" transform="translate(10 10)"/>
</clipPath>
</defs>
</svg>
