<svg width="16" height="16" viewBox="0 0 16 16" fill="none" xmlns="http://www.w3.org/2000/svg">
<path d="M8.00065 2C8.4451 3.77778 9.33398 5.22222 10.6673 6.33333C12.0007 7.44444 12.6673 8.66667 12.6673 10C12.6673 11.2377 12.1757 12.4247 11.3005 13.2998C10.4253 14.175 9.23833 14.6667 8.00065 14.6667C6.76297 14.6667 5.57599 14.175 4.70082 13.2998C3.82565 12.4247 3.33398 11.2377 3.33398 10C3.33398 9.27877 3.56791 8.57699 4.00065 8C4.00065 8.44203 4.17625 8.86595 4.48881 9.17851C4.80137 9.49107 5.22529 9.66667 5.66732 9.66667C6.10935 9.66667 6.53327 9.49107 6.84583 9.17851C7.15839 8.86595 7.33398 8.44203 7.33398 8C7.33398 6.66667 6.33398 6 6.33398 4.66667C6.33398 3.77778 6.88954 2.88889 8.00065 2Z" stroke="#CC243D" stroke-width="1.33333" stroke-linecap="round" stroke-linejoin="round"/>
</svg>
